<?xml version="1.0" encoding="utf-8"?>
<!-- Svg Vector Icons : http://www.onlinewebfonts.com/icon -->
<!DOCTYPE svg PUBLIC "-//W3C//DTD SVG 1.1//EN" "http://www.w3.org/Graphics/SVG/1.1/DTD/svg11.dtd">
<svg version="1.1" xmlns="http://www.w3.org/2000/svg" xmlns:xlink="http://www.w3.org/1999/xlink" x="0px" y="0px" viewBox="0 0 256 256" enable-background="new 0 0 256 256" xml:space="preserve">
<metadata> Svg Vector Icons : http://www.onlinewebfonts.com/icon </metadata>
<g><g><path fill="#000000" d="M118.5,181.2c0-24,11.8-45.2,29.8-58.2c0.2-0.8,0.3-1.7,0.4-2.5c2.3-0.5,4.3-1.8,5.6-3.8c2.4-3.6,3.3-8,3.7-12.3c0.4-3.8-1.1-7.7-4.1-10c3.7-12.4,6.3-25.4,5-38.4c-0.8-7.7-3.5-15.6-9.3-21c-4-3.7-9.4-5.6-14.7-6.5c-1.3-2-3-3.7-5-4.9c-5.5-3.4-12.1-4.2-18.4-4.4c-11.2,0.2-23,2-32.2,8.8c-4.6,3.3-8.3,7.9-10.8,13c-3,6.3-4.3,13.3-4.6,20.2c-0.5,11.2,1.5,22.4,4.2,33.2c-2.8,2.2-4.4,5.8-4.2,9.4c0.2,3.5,0.9,7.1,2.4,10.4c1.3,3,3.7,5.7,7,6.3c0.8,6.2,2.9,12.1,5.9,17.6c1.7,3.1,3.6,6.2,6.4,8.3c0,7.5,0.3,15-0.6,22.4c-2.3,6.6-8.5,10.5-14.4,13.7c-12.7,6.4-26.8,10.1-38.9,17.6c-5.3,3.4-10.3,7.4-14,12.5c-4.8,6.5-7.2,14.5-7.7,22.5c44.3,0,88.6,0,132.9,0C128,221.9,118.5,202.7,118.5,181.2z"/><path fill="#000000" d="M189.9,124.5c-31,0-56.1,25.1-56.1,56.1c0,31,25.1,56.1,56.1,56.1c31,0,56.1-25.1,56.1-56.1C246,149.7,220.9,124.5,189.9,124.5z M227.8,184.1c0,2.5-2.4,4.5-5.3,4.5h-24.7v24.7c0,3-2,5.3-4.5,5.3h-6.8c-2.5,0-4.5-2.4-4.5-5.3v-24.7h-24.7c-2.9,0-5.3-2-5.3-4.5v-6.8c0-2.5,2.4-4.5,5.3-4.5H182v-24.7c0-2.9,2-5.3,4.5-5.3h6.8c2.5,0,4.5,2.4,4.5,5.3v24.7h24.7c2.9,0,5.3,2,5.3,4.5L227.8,184.1L227.8,184.1z"/></g></g>
</svg>